<?xml version="1.0" encoding="utf-8"?>
<!-- Generator: Adobe Illustrator 23.0.5, SVG Export Plug-In . SVG Version: 6.00 Build 0)  -->
<svg version="1.1" id="Слой_1" xmlns="http://www.w3.org/2000/svg" xmlns:xlink="http://www.w3.org/1999/xlink" x="0px" y="0px"
	 viewBox="0 0 493.6 493.6" style="enable-background:new 0 0 493.6 493.6;" xml:space="preserve">
<style type="text/css">
	.st0{fill:#F3CCB3;}
	.st1{fill:#D8A27A;}
	.st2{fill:#B0BBC3;}
	.st3{fill:#C96C42;}
</style>
<g>
	<path class="st0" d="M255.6,407.3c3.6,0,6.5-2.9,6.5-6.5l0-30.8c9.5,0.8,17.9,1,24.1,1c8.3,0,17.6-5.9,20.9-13.6
		c3.2-7.2,6.3-15,6.3-15s6.8-5.4,13.5-10.4c1.5-1.1,1.2-3.4-0.6-4.1l-40.8-22.1c-1-0.5-0.7-2,0.4-2.1l39.5-4.6l7.4-0.9
		c1.5-0.2,2.6-1.6,2.3-3.1l-3.9-21.4l30.7-6.5c2.9-0.8,4.4-4.1,3.1-6.8c-11.3-22.3-26.5-50-31.2-58.5c-0.4-0.8-0.7-1.7-0.6-2.6
		L209.1,323.5c1.5,3,3.3,5.9,5.6,8.7c13.2,16.3,19.5,20.4,19.5,20.5c1.4,0.9,1.8,2.7,0.9,4.1c-0.6,0.9-1.5,1.4-2.5,1.4
		c-0.5,0-1.1-0.1-1.6-0.5c-0.3-0.2-6.9-4.5-20.9-21.7c-2.1-2.6-3.9-5.3-5.4-8.1l-77.3,77.3c1.2,1.3,2.9,2.1,4.8,2.1H255.6z"/>
	<path class="st0" d="M129.7,136.6c-34.4,44.3-33.6,111.2-4,158.7l0,33.5l70.8-70.8c0,0-0.1,0-0.1,0c-0.7,0.2-16.2,3.8-26.5-4
		c-0.5-0.4-1-0.8-1.5-1.2c-4.3-4-6.6-9.7-6.9-17c-0.3-8.1,2-14.2,6.8-18.4c9.7-8.2,25.9-5,26.5-4.8c1.4,0.3,2.3,1.6,2,3
		c-0.3,1.4-1.6,2.3-3,2c-0.1,0-14.4-2.9-22.2,3.7c-3.6,3.1-5.3,7.9-5,14.3c0.3,6.5,2.4,11.3,6.4,14.3c8.3,6.3,22.1,3.1,22.2,3.1
		c1.4-0.3,2.7,0.5,3.1,1.9c0.1,0.5,0.1,0.9-0.1,1.3l118.7-118.7C274.8,78.8,172,82,129.7,136.6"/>
	<path class="st1" d="M198.3,255c-0.3-1.4-1.7-2.2-3.1-1.9c-0.1,0-13.9,3.2-22.2-3.1c-4-3-6.1-7.8-6.4-14.3
		c-0.3-6.4,1.4-11.2,5-14.3c7.8-6.6,22.1-3.8,22.2-3.7c1.4,0.3,2.7-0.6,3-2c0.3-1.4-0.6-2.7-2-3c-0.7-0.1-16.9-3.4-26.5,4.8
		c-4.9,4.1-7.2,10.3-6.8,18.4c0.3,7.3,2.6,13,6.9,17c0.5,0.4,1,0.8,1.5,1.2c10.2,7.7,25.8,4.1,26.5,4c0,0,0.1,0,0.1,0l1.7-1.7
		C198.3,255.9,198.4,255.4,198.3,255"/>
	<path class="st2" d="M395.4,327l-40.8-10.3c-1.7-0.4-3.4,0.6-3.8,2.3l-0.3,1.2c-0.4,1.7,0.6,3.4,2.3,3.8l40.8,10.3
		c2,0.5,4.1-0.7,4.6-2.7C398.6,329.6,397.4,327.5,395.4,327"/>
	<path class="st2" d="M354.5,306c0.9,1.5,2.8,2,4.3,1.1l36.1-21.6c1.8-1.1,2.4-3.4,1.3-5.2c-1.1-1.8-3.4-2.4-5.2-1.3l-36.1,21.6
		c-1.5,0.9-2,2.8-1.1,4.3L354.5,306z"/>
	<path class="st2" d="M351.9,334.6c-0.9-1.5-2.8-2-4.3-1.1l-1.1,0.6c-1.5,0.9-2,2.8-1.1,4.3l21.6,36.1c1.1,1.8,3.4,2.4,5.2,1.3
		c1.8-1.1,2.4-3.4,1.3-5.2L351.9,334.6z"/>
	<path class="st1" d="M231,357.7c0.5,0.3,1,0.5,1.6,0.5c1,0,1.9-0.5,2.5-1.4c0.9-1.4,0.5-3.2-0.9-4.1c0,0-6.3-4.2-19.5-20.5
		c-2.3-2.8-4.1-5.7-5.6-8.7l-4.4,4.4c1.5,2.7,3.2,5.4,5.4,8.1C224.1,353.2,230.7,357.5,231,357.7"/>
	<path class="st3" d="M246.8,0C110.7,0,0,110.7,0,246.8c0,136.1,110.7,246.8,246.8,246.8s246.8-110.7,246.8-246.8
		C493.6,110.7,382.9,0,246.8,0 M246.8,45.6c45.5,0,87.6,15.2,121.3,40.8l-51.2,51.2L198.2,256.3l-1.7,1.7l-70.8,70.8l-39.3,39.3
		c-25.6-33.8-40.8-75.8-40.8-121.3C45.6,135.8,135.8,45.6,246.8,45.6 M246.8,448c-45.5,0-87.6-15.2-121.3-40.8l2-2l77.3-77.3
		l4.4-4.4l124.3-124.3l73.8-73.8c25.6,33.8,40.8,75.8,40.8,121.3C448,357.7,357.7,448,246.8,448"/>
</g>
</svg>
